<?xml version="1.0" encoding="UTF-8" standalone="no"?>
<!DOCTYPE svg PUBLIC "-//W3C//DTD SVG 1.1//EN" "http://www.w3.org/Graphics/SVG/1.1/DTD/svg11.dtd">
<svg width="100%" height="100%" viewBox="0 0 1023 1023" version="1.1" xmlns="http://www.w3.org/2000/svg" xmlns:xlink="http://www.w3.org/1999/xlink" xml:space="preserve" xmlns:serif="http://www.serif.com/" style="fill-rule:evenodd;clip-rule:evenodd;stroke-linejoin:round;stroke-miterlimit:2;">
    <g transform="matrix(1,0,0,1,-448.5,-28.5)">
        <g>
            <g transform="matrix(2.46015,0,0,2.46015,-920.192,-575.593)">
                <rect x="556.345" y="245.551" width="415.828" height="415.828"/>
            </g>
            <g transform="matrix(0.808662,0,0,0.808662,636.535,216.535)">
                <path d="M400,800L41.379,620.69L41.379,179.31L400,358.621L400,800Z" style="fill:white;fill-rule:nonzero;"/>
            </g>
            <g transform="matrix(0.808662,0,0,0.808662,636.535,216.535)">
                <path d="M400,800L758.621,620.69L758.621,179.31L400,358.621L400,800Z" style="fill:rgb(167,167,167);fill-rule:nonzero;"/>
            </g>
            <g transform="matrix(0.808662,0,0,0.808662,636.535,216.535)">
                <path d="M41.379,179.31L386.207,-0L758.621,179.31L400,358.621L41.379,179.31Z" style="fill:rgb(135,135,135);fill-rule:nonzero;"/>
            </g>
        </g>
    </g>
</svg>
