<svg id="Layer_1" data-name="Layer 1" xmlns="http://www.w3.org/2000/svg" viewBox="0 0 154.26 16.56"><defs><style>.cls-1{fill:#faaf43;}</style></defs><title>word_countdown</title><path class="cls-1" d="M820,224.44a2.09,2.09,0,0,1-1.74-.71,2.14,2.14,0,0,1-.3-1.88l2.4-11.38a3.28,3.28,0,0,1,1.13-1.88,3.08,3.08,0,0,1,2-.71h9.14l-.43,2.06H826l-2.78,12.43h6.36l-.43,2.06Z" transform="translate(-817.87 -207.88)"/><path class="cls-1" d="M845.89,221.85a3.29,3.29,0,0,1-1.13,1.88,3.09,3.09,0,0,1-2,.71h-9.31a2.09,2.09,0,0,1-1.74-.71,2.14,2.14,0,0,1-.3-1.88l2.4-11.38a3.28,3.28,0,0,1,1.13-1.88,3.08,3.08,0,0,1,2-.71h9.31a2.09,2.09,0,0,1,1.74.71,2.14,2.14,0,0,1,.3,1.88Zm-6.46-11.9-2.64,12.43h3.46l2.64-12.43Z" transform="translate(-817.87 -207.88)"/><path class="cls-1" d="M862.45,221.85a3.29,3.29,0,0,1-1.13,1.88,3.09,3.09,0,0,1-2,.71H850a2.09,2.09,0,0,1-1.74-.71,2.14,2.14,0,0,1-.3-1.88l3-14h5.52l-3.07,14.5h3.46l3.07-14.5h5.52Z" transform="translate(-817.87 -207.88)"/><path class="cls-1" d="M878.79,224.44h-5.52l-1.58-10.39-2.21,10.39H864l3.5-16.56H873l1.58,10.42,2.21-10.42h5.52Z" transform="translate(-817.87 -207.88)"/><path class="cls-1" d="M897.37,209.95h-4.13l-3.07,14.5h-5.52l3.07-14.5h-4.13l.43-2.06H897.8Z" transform="translate(-817.87 -207.88)"/><path class="cls-1" d="M911.07,221.85a3.29,3.29,0,0,1-1.13,1.88,3.09,3.09,0,0,1-2,.71H896l3.5-16.56h11.9a2.09,2.09,0,0,1,1.74.71,2.14,2.14,0,0,1,.3,1.88Zm-6.46-11.9L902,222.38h3.46l2.64-12.43Z" transform="translate(-817.87 -207.88)"/><path class="cls-1" d="M927.63,221.85a3.28,3.28,0,0,1-1.13,1.88,3.09,3.09,0,0,1-2,.71h-9.31a2.09,2.09,0,0,1-1.74-.71,2.14,2.14,0,0,1-.3-1.88l2.4-11.38a3.28,3.28,0,0,1,1.13-1.88,3.08,3.08,0,0,1,2-.71H928a2.08,2.08,0,0,1,1.74.71,2.14,2.14,0,0,1,.3,1.88Zm-6.46-11.9-2.64,12.43H922l2.64-12.43Z" transform="translate(-817.87 -207.88)"/><path class="cls-1" d="M947.67,224.44h-5.52l-.36-6.36-3.07,6.36H933.2l-1-16.56h5.52l.72,12.43,3.1-6.38-.36-6h5.52l.72,12.43,6-12.43h2.23Z" transform="translate(-817.87 -207.88)"/><path class="cls-1" d="M968.63,224.44h-5.52l-1.58-10.39-2.21,10.39h-5.52l3.5-16.56h5.52l1.58,10.42,2.21-10.42h5.52Z" transform="translate(-817.87 -207.88)"/></svg>