<?xml version="1.0" standalone="no"?>
<!DOCTYPE svg PUBLIC "-//W3C//DTD SVG 1.1//EN" "http://www.w3.org/Graphics/SVG/1.1/DTD/svg11.dtd">
<svg width="100%" height="100%" viewBox="0 0 491 164" version="1.1" xmlns="http://www.w3.org/2000/svg" xmlns:xlink="http://www.w3.org/1999/xlink" xml:space="preserve" style="fill-rule:evenodd;clip-rule:evenodd;stroke-linejoin:round;stroke-miterlimit:1.41421;">
    <g transform="matrix(1,0,0,1,-392.49,-93.2415)">
        <g transform="matrix(1,0,0,1,62.66,19)">
            <path d="M789.51,80.12C796.22,80.12 799.19,72.68 807,74.54C814.81,76.4 820.4,85 820.4,85C820.4,85 814.07,79.79 807,79C799.93,78.21 795.46,87.93 789.88,87.93C784.3,87.93 779.88,80.11 773.88,79.74C767.88,79.37 760.11,87.18 760.11,87.18C760.11,87.18 763.82,77 770.15,76C777.89,74.88 783.18,80.12 789.51,80.12Z" style="fill:rgb(61,61,60);fill-rule:nonzero;"/>
        </g>
        <g transform="matrix(1,0,0,1,62.66,19)">
            <path d="M704.88,107.84C709.88,107.84 712.14,102.25 718,103.65C723.86,105.05 728.05,111.47 728.05,111.47C728.05,111.47 723.31,107.56 718,107C712.69,106.44 709.34,113.7 705.16,113.7C700.98,113.7 697.62,107.84 693.16,107.56C688.7,107.28 682.83,113.14 682.83,113.14C682.83,113.14 685.62,105.46 690.37,104.76C696.16,103.91 700.13,107.84 704.88,107.84Z" style="fill:rgb(61,61,60);fill-rule:nonzero;"/>
        </g>
        <g transform="matrix(1,0,0,1,62.66,19)">
            <path d="M631.77,85.53C634.93,85.53 636.33,82.03 640,82.9C643.67,83.77 646.31,87.81 646.31,87.81C644.479,86.353 642.308,85.386 640,85C636.67,84.65 634.57,89.2 631.94,89.2C629.31,89.2 627.21,85.52 624.41,85.35C621.61,85.18 617.93,88.85 617.93,88.85C617.93,88.85 619.68,84.03 622.66,83.59C626.3,83.06 628.79,85.53 631.77,85.53Z" style="fill:rgb(61,61,60);fill-rule:nonzero;"/>
        </g>
        <g transform="matrix(1,0,0,1,62.66,19)">
            <path d="M404.77,234.53C407.93,234.53 409.33,231.03 413,231.9C416.67,232.77 419.31,236.81 419.31,236.81C417.479,235.353 415.308,234.386 413,234C409.67,233.65 407.57,238.2 404.94,238.2C402.31,238.2 400.21,234.52 397.41,234.35C394.61,234.18 390.93,237.85 390.93,237.85C390.93,237.85 392.68,233.03 395.66,232.59C399.3,232.06 401.79,234.53 404.77,234.53Z" style="fill:rgb(61,61,60);fill-rule:nonzero;"/>
        </g>
        <g transform="matrix(1,0,0,1,62.66,19)">
            <path d="M351.88,204.19C356.88,204.19 359.14,198.6 365,200C370.86,201.4 375.05,207.82 375.05,207.82C375.05,207.82 370.3,203.91 365,203.35C359.7,202.79 356.34,210.05 352.16,210.05C347.98,210.05 344.62,204.19 340.16,203.91C335.7,203.63 329.83,209.49 329.83,209.49C329.83,209.49 332.62,201.81 337.37,201.11C343.16,200.26 347.13,204.19 351.88,204.19Z" style="fill:rgb(61,61,60);fill-rule:nonzero;"/>
        </g>
    </g>
</svg>
