<svg xmlns="http://www.w3.org/2000/svg" xmlns:xlink="http://www.w3.org/1999/xlink" viewBox="0 0 772.67 249.83"><defs><style>.cls-1{fill:none;}.cls-2{isolation:isolate;}.cls-3{fill:#ffcf8c;fill-rule:evenodd;}.cls-4{fill:#edc283;}.cls-5{fill:#6f3a24;}.cls-6{clip-path:url(#clip-path);}.cls-20,.cls-7,.cls-9{fill:#c7813e;}.cls-15,.cls-16,.cls-22,.cls-7,.cls-8{opacity:0.3;}.cls-11,.cls-8{fill:#9d633b;}.cls-18,.cls-9{opacity:0.4;}.cls-10{fill:#eccc8a;}.cls-10,.cls-11,.cls-12,.cls-22{mix-blend-mode:multiply;}.cls-12,.cls-16,.cls-21{fill:#bc905c;}.cls-13{fill:url(#linear-gradient);}.cls-14{clip-path:url(#clip-path-2);}.cls-15,.cls-17,.cls-18,.cls-19{fill:#d7a457;}.cls-17,.cls-20,.cls-21{opacity:0.5;}.cls-23{mix-blend-mode:soft-light;}.cls-24{fill:#fff;}.cls-25{fill:#be1e2d;stroke:#fff;stroke-miterlimit:10;stroke-width:5px;}</style><clipPath id="clip-path" transform="translate(-429.33 -150.77)"><path class="cls-1" d="M806,163a21,21,0,0,0-2.59.1c-.64.13-.21,3-.24,2.72s-.77-3-.77-3l-2.18.2a20.81,20.81,0,0,0-2.17.33l-.46,1.15-.35-1.14a17.2,17.2,0,0,0-2.5.29c-.87.22-2.26.27-2.57.44a11.72,11.72,0,0,1-1.18.45s4.2,29,4.08,31.26a7.7,7.7,0,0,0,.57,3.61l2.12.09-2.16.4L799,249.72l4.75,54.62s14.2-.52,19.92-2.07c0,0-9.37-75.74-9.39-76s-1-.53-1-.53l.86-.35-1.81-12.68-2.45-17.94Z"/></clipPath><linearGradient id="linear-gradient" x1="900.62" y1="356.81" x2="900.62" y2="278.54" gradientTransform="matrix(1, -0.08, 0.08, 1, -122.82, -54.12)" gradientUnits="userSpaceOnUse"><stop offset="0" stop-color="#eccc8a"/><stop offset="1" stop-color="#d7a457"/></linearGradient><clipPath id="clip-path-2" transform="translate(-429.33 -150.77)"><path class="cls-1" d="M772.17,158.27c-.3,0-5.47,0-5.47,0l-10.63,1.54-9.27.81.66,13.23.94.4.31,4.2,20.52-1.74-19,2.82.57,12,1.23.13-1.17.71.17,2.4,25.5-.92-26.82,2.25-.22,1.11L750,206l2,.06-1.89.53.68,6.59.79,1.14,22-1.94-21,3.06-.52,1.25,1,10.66,1.94,1.52,9.4-.35-8.84,1.14-1.73-.09-1.06.7.37,2.26,1.66.58,43.56-3.24,54-5.25.73-1.15-.75-8.87-1.93-.07,1.67-.75-.72-7.06-20.24,1.79,18.86-2.63.35-.76-.17-5.18-3.74.21,3.57-1,.35-3.53s-.58-7.92-1-7.77-32.08,3.56-32.08,3.56l33.62-4.66s-.44-3.22-.15-3.49a11.22,11.22,0,0,0,.84-1l-1.14-12.95-2.65-.25L822,172.4l24.79-4.3-.12-3,.85-2.25L846.32,152l-1.61-1.19-40,3.41L803,155.31l-18.54,1.52Z"/></clipPath></defs><title>island</title><g class="cls-2"><g id="Layer_2" data-name="Layer 2"><path class="cls-3" d="M432.82,400.6S582.79,271,801.42,271c176,0,383.24,109,383.24,109Z" transform="translate(-429.33 -150.77)"/><path class="cls-4" d="M1202,387c-12.42-6.08-76.5-40.92-126-58.67-14.75-3.58-37-1.58-57.27,3.13C986.29,339,957.38,348.66,918,347s-91.33-15.67-122.33-23.67S713,297,665.33,304.67c-55.78,9-126.33,44.33-162,47.67,0,0-20.25,12.93-34.11,22.28-13.47,9.08-39.89,25.72-39.89,25.72Z" transform="translate(-429.33 -150.77)"/><path class="cls-5" d="M806,163a21,21,0,0,0-2.59.1c-.64.13-.21,3-.24,2.72s-.77-3-.77-3l-2.18.2a20.81,20.81,0,0,0-2.17.33l-.46,1.15-.35-1.14a17.2,17.2,0,0,0-2.5.29c-.87.22-2.26.27-2.57.44a11.72,11.72,0,0,1-1.18.45s4.2,29,4.08,31.26a7.7,7.7,0,0,0,.57,3.61l2.12.09-2.16.4L799,249.72l4.75,54.62s14.2-.52,19.92-2.07c0,0-9.37-75.74-9.39-76s-1-.53-1-.53l.86-.35-1.81-12.68-2.45-17.94Z" transform="translate(-429.33 -150.77)"/><g class="cls-6"><path class="cls-7" d="M794.24,163.26s2.2,22.36,3.25,30.33,1.32,11.93,1.32,11.93-4-27.32-4.64-30.55-1.57-11.73-1.41-13.52S794.24,163.26,794.24,163.26Z" transform="translate(-429.33 -150.77)"/><path class="cls-8" d="M816.23,306.63s-1.67-22.57-3.13-30-4.74-22.61-5.81-30a205,205,0,0,1-2-21.16c-.2-6-3.91-50.56-5.49-56,0,0,.06,3.14-.1,5.15,0,0,3.39,30.27,4.27,43.31.89,13.25,1.77,38.35,2,47.19s4.16,39.72,4.75,44,1.27,2.94,1.27,2.94-3.69-33.45-4.28-37.5-2.2-17.58-.38-14,4.65,19.11,5.56,27,1.65,17.22,1.65,17.22Z" transform="translate(-429.33 -150.77)"/><path class="cls-9" d="M801.81,284.76s.56-35.14-.2-48.15c-.74-12.82-2.05-31-2.2-31.56s-3.19-32.72-3.19-32.72,3,35.84,3.23,38.52-.46,7.61-.48,13.79-.52,19.86-.52,19.86l.64,8.43a44.47,44.47,0,0,0,.62-7.54c-.07-3.68-.09-11.88-.1-12.51s.4-7.62.4-7.62.11-1.19.76,7.2.61,35.46,0,39.55Z" transform="translate(-429.33 -150.77)"/><path class="cls-7" d="M820.35,304.08s-3.11-29.08-4.81-35.63-7-36.88-8.1-44.45-1.86-15.22-1-12,2,15.65,2.49,10-1.07-23.09-1.73-28.11-4.56-24.69-6.25-26.66l.33-4s5.51,19.07,6.76,29,2.41,30.31,2,34.14-.53,5.65,1.66,17c2.21,11.5,6.39,35.32,7.3,42.76s2.54,19.72,2.54,19.72Z" transform="translate(-429.33 -150.77)"/></g><path class="cls-10" d="M815.49,251c.56,5.81,4.56,41.15,5.76,51.76.91-.16,1.73-.33,2.43-.52,0,0-9.37-75.74-9.39-76s-1-.53-1-.53l.86-.35-1.81-12.68-2.45-17.94L806,163a21,21,0,0,0-2.59.1c-.53.1-.33,2.08-.26,2.6-.12-.58-.75-2.93-.75-2.93l.62,4C805.51,183.29,814.92,245.1,815.49,251Z" transform="translate(-429.33 -150.77)"/><path class="cls-10" d="M792.15,164a11.72,11.72,0,0,1-1.18.45s4.2,29,4.08,31.26a7.7,7.7,0,0,0,.57,3.61l2.12.09-2.16.4L799,249.72l4.75,54.62,2.28-.1-2.4-18.64-7.28-85.34,2.16-.94s-2.27.05-2.26-.93S792.15,164,792.15,164Z" transform="translate(-429.33 -150.77)"/><polygon class="cls-11" points="368.9 87.43 386.34 86.63 384.43 70.94 367.87 73 368.9 87.43"/><path class="cls-5" d="M772.17,158.27c-.3,0-5.47,0-5.47,0l-10.63,1.54-9.27.81.66,13.23.67.54.2,4.1,1,1.27.55,11.88.61,1,.1,2-.9,1.46-.22,1.11L750,206l0,.61.3,6.62.92,1.56,1.06.68-.43,1.34.06,10.35,2,2.42-2,1.44.82,3.84,2.36,1,43.56-3.24,54-5.25,1.76-1.35-1.43-14.94-1.25-4.41-.81-.79.72-.73L850.9,199l.45-3.54s-1.33-7.86-1.73-7.7,1.26-1.08,1.26-1.08-.44-3.22-.15-3.49a11.22,11.22,0,0,0,.84-1l-1.14-12.95-2.65-.25-1-.88-.12-3,.85-2.25L846.32,152l-1.61-1.19-40,3.41L803,155.31l-18.54,1.52Z" transform="translate(-429.33 -150.77)"/><polygon class="cls-12" points="371.85 77.58 325.5 82.19 325.67 85.12 369.23 81.88 423.19 76.63 423.08 73.95 371.85 77.58"/><path class="cls-12" d="M851.34,195.49s-.76-4.47-1.3-6.61l-.43-1.09-4.54,8.55.16,3.81,5.05,5,1.23.06L850.9,199Z" transform="translate(-429.33 -150.77)"/><path class="cls-12" d="M851.6,206.7s.36,5-.2,5.63a15.27,15.27,0,0,1-2.22,1.74l1,3.39,2.84,6,1.23,2.57-1.43-14.94Z" transform="translate(-429.33 -150.77)"/><polygon class="cls-12" points="335.38 76.42 333.51 74.06 328.69 70.68 323.27 64.67 322.47 66.14 322.52 76.4 324.5 78.81 335.07 77.76 335.38 76.42"/><path class="cls-13" d="M772.17,158.27c-.3,0-5.47,0-5.47,0l-10.63,1.54-9.27.81.66,13.23.94.4.31,4.2,20.52-1.74-19,2.82.57,12,1.23.13-1.17.71.17,2.4,25.5-.92-26.82,2.25-.22,1.11L750,206l2,.06-1.89.53.68,6.59.79,1.14,22-1.94-21,3.06-.52,1.25,1,10.66,1.94,1.52,9.4-.35-8.84,1.14-1.73-.09-1.06.7.37,2.26,1.66.58,43.56-3.24,54-5.25.73-1.15-.75-8.87-1.93-.07,1.67-.75-.72-7.06-20.24,1.79,18.86-2.63.35-.76-.17-5.18-3.74.21,3.57-1,.35-3.53s-.58-7.92-1-7.77-32.08,3.56-32.08,3.56l33.62-4.66s-.44-3.22-.15-3.49a11.22,11.22,0,0,0,.84-1l-1.14-12.95-2.65-.25L822,172.4l24.79-4.3-.12-3,.85-2.25L846.32,152l-1.61-1.19-40,3.41L803,155.31l-18.54,1.52Z" transform="translate(-429.33 -150.77)"/><g class="cls-14"><path class="cls-15" d="M748.72,224.43A169,169,0,0,1,785.2,216a440.15,440.15,0,0,1,47.5-1.64l-.31.73s-56.76,3.64-77.58,12.49C754.81,227.56,748.29,227.4,748.72,224.43Z" transform="translate(-429.33 -150.77)"/><path class="cls-16" d="M783.39,233.14s28.14-11.9,43.42-13.5c14.93-1.56,19.08-2.2,19.08-2.2s-32.41,5.89-35.84,8a42.35,42.35,0,0,0-5.62,4.11S784.79,233.72,783.39,233.14Z" transform="translate(-429.33 -150.77)"/><path class="cls-9" d="M817.72,230.13s9.1-4.71,14.84-5.9,22.66-5.54,22.66-5.54l1.17,6.84S821.16,230.89,817.72,230.13Z" transform="translate(-429.33 -150.77)"/><path class="cls-7" d="M793.36,197.52c-5.77.92-10.47,2.73-10.44,4s4.76,1.59,10.53.65,10.3-2.73,10.28-4S799.08,196.6,793.36,197.52Zm3.78,2.71c-2.43.39-4.41.32-4.42-.16s2-1.2,4.39-1.59,4.38-.31,4.39.17S799.57,199.84,797.14,200.23Z" transform="translate(-429.33 -150.77)"/><path class="cls-17" d="M853.91,193.42s-19.94,1-24.68.59-24.74-1.58-31.12-1.07-22.14,6.76-25.63,9.23-2.71,5.64,3.37,5.73,23.93-2.64,30.46-5.76c.28-.13,5.54-.91,7.35-2.3a29.09,29.09,0,0,1,5.06-3.13c.75-.28,12.69-.54,18.92-.28a151.16,151.16,0,0,0,16-.69Zm-38.79,2.29c-.84.52-3.93.72-5.4,1s-.57,1.53-.16,2-.85.95-1.94,1.47-3.09,1.13-4.81,2c-1,.49-3.87,1.18-8.35,1.69s-18.15,1.35-16.61-1,7.54-4.57,13.68-6.71,17.17-2,20.39-1.85S816,195.19,815.12,195.71Z" transform="translate(-429.33 -150.77)"/><path class="cls-9" d="M860.51,213.4s-21.47-1-29.12-.85a91.5,91.5,0,0,1-11.46-.25s26.24-1.58,29.34-2.14,11.27-.37,13,.46S860.51,213.4,860.51,213.4Z" transform="translate(-429.33 -150.77)"/><path class="cls-9" d="M759.19,235.1s21.65-6.87,29.53-8.77A100.07,100.07,0,0,0,800.37,223s-27.29,5.61-30.63,5.9-11.63,2.71-13.14,4S759.19,235.1,759.19,235.1Z" transform="translate(-429.33 -150.77)"/><path class="cls-18" d="M752.5,216.61c-.22.28,15.31-2.55,21.44-3.3s34.11-6.06,34.11-6.06S774,210.43,773,210.62,757.33,210.34,752.5,216.61Z" transform="translate(-429.33 -150.77)"/><path class="cls-19" d="M752.78,211.08a77.66,77.66,0,0,1,11.63-7.52c5.69-2.82,10.25-5.34,11-5.4s-13.44,4.08-16.88,6.36-8.56,5.64-8.56,5.64A3.73,3.73,0,0,0,752.78,211.08Z" transform="translate(-429.33 -150.77)"/><path class="cls-17" d="M853,181.41a59.8,59.8,0,0,0-12.71-1.26c-.56.13-17-.42-17-.42s-30.56,5.6-34.63,7.23-9.3,2.07-17.66,2-26.43,1-26.43,1-2,1.69-.57,5.64,1.8,7.45,4.15,8.57c0,0,14-7.07,19-9s17.27-3.89,19.27-3.92,25-2,25-2,23.46-1.14,29.49-.64,15.33.36,15.33.36l.7-1,1-4.58S857.47,182.52,853,181.41Zm-25.29,4.9c-4.19-.25-27.54,1.32-27.54,1.32S814.71,184,819,183.24s10.8.12,17,.24,18.61,2.82,18.61,2.82S831.89,186.56,827.73,186.31Z" transform="translate(-429.33 -150.77)"/><path class="cls-19" d="M747.29,181s17.14-1.15,22.74-3.43,17-7.56,22.54-9a57.43,57.43,0,0,1,16-2.09c4.54.2,38.4-2.95,42.46-5.68a19.1,19.1,0,0,1-3.94-.74s-22.92,4-32.84,4.44c-10.07.5-29.2-.24-35.94-.6s-30.11,4.58-33.34,5.37-2.17,2.35-2.17,2.35,25.33-4.25,28.39-5.05,13.3-2.78,10.68.64-14.32,7.73-20.28,8.8-13.06,1.67-13.06,1.67Z" transform="translate(-429.33 -150.77)"/><path class="cls-20" d="M762.4,157s26.89,4.77,36.79,4.53,23.6-1.08,24-1.33S848,156.95,848,156.95s-27.21,2.66-29.24,2.78-5.84-1.75-10.56-2.42S793,154.18,793,154.18l-6.4.47a15.6,15.6,0,0,0,5.8,2.06c2.8.23,9.07,1,9.56,1.07s5.85,1.61,5.85,1.61.91.36-5.46.84-27.06-2.38-30.23-4.08Z" transform="translate(-429.33 -150.77)"/><path class="cls-7" d="M746.26,184.32s22.14-1.78,27.09-4.24,28-8.51,33.73-9.66,11.58-1.41,9.13,0-11.9,1.7-7.56,3.56,17.63,1.51,21.45.94,18.73-5.49,20.18-8.68l3.11,1.34s-14.4,8.38-21.94,9.39-23.11.12-26-1.36-4.34-2-12.95.69-26.81,7.59-32.46,8.28-15,2.1-15,2.1Z" transform="translate(-429.33 -150.77)"/><path class="cls-19" d="M794,211.42s51.19-9,59.34-8.06l-.94,1.33s-20.16,1.29-25.62,2.44S794,211.42,794,211.42Z" transform="translate(-429.33 -150.77)"/><path class="cls-21" d="M817.69,203.89c.39-.26,34.13-2.25,37.47-2.08l1.74-2.24s-8.75,0-13.29.83S817.69,203.89,817.69,203.89Z" transform="translate(-429.33 -150.77)"/></g><g class="cls-22"><path class="cls-19" d="M850.3,195.58s-.58-7.92-1-7.77c-.14.06-4.27.53-9.53,1.11a7.89,7.89,0,0,0,2.69.74c1.45.11,4.41,1.29,4.51,2.67s-.57,4.1-.59,6-.79,3.85-.15,3.81,2.26-.16.53,1.47-12.55,4.49-13.21,4.59l16.36-2.28.35-.76-.17-5.18-3.74.21,3.57-1Z" transform="translate(-429.33 -150.77)"/><path class="cls-19" d="M842.56,153.93s.14-.52.66,3.61,1.93,6.61.77,7.65,1.41-.36-1.16,1-19.47,5.92-19.49,5.93l23.44-4.07-.12-3,.85-2.25L846.32,152l-1.61-1.19-40,3.41L803,155.31l-3.66.3Z" transform="translate(-429.33 -150.77)"/><path class="cls-19" d="M772.12,231.84l26.24-2,54-5.25.73-1.15-.75-8.87-1.93-.07,1.67-.75-.72-7.06-16.45,1.45c3.24,0,11.41,0,12.12.93.92,1.22,1.79,6,1.86,8.58s-14.6,5.54-30.19,8.81C807.21,228.89,783.77,230.93,772.12,231.84Z" transform="translate(-429.33 -150.77)"/><path class="cls-19" d="M847.76,169l-7.25,1a15.41,15.41,0,0,1,4.22,0c2.57.84,3.17.78,2.9,2.69a39.47,39.47,0,0,0-.36,6.41,12.74,12.74,0,0,1-.12,4,1.31,1.31,0,0,0,0,.65,4.1,4.1,0,0,0-1.56.82c-2.65,1.82-2.32,3.19-5,3.56h0l10.34-1.43s-.44-3.22-.15-3.49a11.22,11.22,0,0,0,.84-1l-1.14-12.95Z" transform="translate(-429.33 -150.77)"/><path class="cls-19" d="M765.23,232.35h0Z" transform="translate(-429.33 -150.77)"/></g><polygon class="cls-12" points="323.27 64.67 322.28 63.55 343.4 61.68 323.27 64.67"/><polygon class="cls-12" points="320.35 45.36 346.42 43.17 321.67 44.03 321.25 43.9 320.35 45.36"/><g class="cls-23"><path class="cls-24" d="M750.82,213.19l.79,1.14,21.12-1.87-20.57,1a11.12,11.12,0,0,0-.82-1.06,44.17,44.17,0,0,1-.88-5.3l1.55-1-1.89.53Z" transform="translate(-429.33 -150.77)"/><path class="cls-24" d="M846.3,169.18l3.15,1.88s1.19,8.74,1.1,9.24-.34,2.15-.48,2.73a14,14,0,0,0,.07,2.61l-6.54,2.07,7.27-1s-.44-3.22-.15-3.49a11.22,11.22,0,0,0,.84-1l-1.14-12.95-2.65-.25Z" transform="translate(-429.33 -150.77)"/><path class="cls-24" d="M750.47,205.42s-.44-7.75-.34-8,24.37-3.34,24.93-3.39l-15.16,1.27-.29,0-1.31.11-8.17.69-.5.25-.18.89L750,206l2,.06Z" transform="translate(-429.33 -150.77)"/><path class="cls-24" d="M753.7,232l-.24-.76.43-.82a8.87,8.87,0,0,1,1.11,0c.49,0,9.41-1.82,9.41-1.82l-8.84,1.14-1.73-.09-1.06.7.37,2.26,1.66.58,43.56-3.24,54-5.25.73-1.15-.75-8.87-1.93-.07,1.67-.75-.72-7.06-20.24,1.79,19.85-1.14.69,6-1.93,1.37,2,.46s.6,6.53.57,7a15.16,15.16,0,0,1-.36,1.8s-34.57,3.05-37.62,3.46-58.58,4.82-58.58,4.82Z" transform="translate(-429.33 -150.77)"/><path class="cls-24" d="M753.69,226.8l-.9-8.13a8.19,8.19,0,0,1,.38-2.37c.24-.26,14-2.81,18.3-3.6l-18.86,2.75-.52,1.25,1,10.66,1.94,1.52,9.4-.35-9.27-.45Z" transform="translate(-429.33 -150.77)"/><path class="cls-24" d="M850.29,205.12l-.17-5.18-3.74.21,3.57-1,.35-3.53s-.58-7.92-1-7.77c-.14.06-4.27.53-9.53,1.11h0l8.77-.3,1.15,6.55a25.59,25.59,0,0,1-.39,3.08,33,33,0,0,1-4.1,1.9l4.27.35s.2,4.37.15,4.59-18.58,3.43-18.58,3.43l18.86-2.63Z" transform="translate(-429.33 -150.77)"/></g><circle class="cls-25" cx="370.98" cy="41.15" r="26.01"/><rect class="cls-24" x="786.09" y="187.33" width="30.68" height="7.58" transform="translate(-445.61 -60.54) rotate(-6.38)"/><path class="cls-4" d="M855.7,311.11c-21.11-26.7-41.06-8.86-45.84-3.83Z" transform="translate(-429.33 -150.77)"/><path class="cls-4" d="M818.41,308c-28.86-37-56.18-11.27-61.84-5.16Z" transform="translate(-429.33 -150.77)"/></g></g></svg>