<?xml version="1.0" standalone="no"?>
<!DOCTYPE svg PUBLIC "-//W3C//DTD SVG 1.1//EN" "http://www.w3.org/Graphics/SVG/1.1/DTD/svg11.dtd">
<svg width="100%" height="100%" viewBox="0 0 1576 107" version="1.1" xmlns="http://www.w3.org/2000/svg" xmlns:xlink="http://www.w3.org/1999/xlink" xml:space="preserve" style="fill-rule:evenodd;clip-rule:evenodd;stroke-linejoin:round;stroke-miterlimit:1.41421;">
    <g transform="matrix(1,0,0,1,-21.8664,-235.777)">
        <g transform="matrix(1,0,0,1,62.66,19)">
            <path d="M1532,270.83C1510.15,307.9 1482.82,322.1 1435.16,322.83C1383.01,323.57 1303.91,295.25 1277.53,287.83C1223.74,272.77 1166.17,273.09 1110.85,283.21C1098.02,285.56 1025.59,308.97 943.57,293.46C885.87,282.55 829.05,267.23 771.32,257.56C742.99,252.81 714.12,250.56 685.59,253.36C656.59,256.21 627.84,265.06 599.41,272.36C570.41,279.84 541.56,287.76 512.68,295.75C485.12,303.37 458,310.55 429.68,312.04C409.3,313.11 361.45,309.96 275.86,286.67C224.86,272.78 173.2,259.76 120.68,262.96C94.682,264.691 68.995,269.614 44.2,277.62C16.8,286.32 -9.8,298.36 -37.11,307.31C-39.3,308.03 -42.27,304.14 -39.95,302C1,264.19 52,232 102.54,224.15C155.24,215.93 209.15,221.4 260.77,234.57C311.66,247.57 361.77,276.41 413.96,277.85C441.76,278.62 468.37,273.48 495.38,265.85C524.51,257.62 553.64,249.46 582.84,241.62C611.61,233.89 640.55,225.28 669.74,220.35C698.29,215.52 727.35,216.03 755.98,219.25C838.25,228.51 894.06,237.73 926.07,246.48C998.99,266.48 1082.46,240.24 1096.29,236.06C1150.93,219.55 1206.39,235.78 1260.51,249.45C1286.8,256.09 1312.29,264.28 1338.43,271.77C1363.07,278.83 1387.43,276.23 1412.75,271.77C1430.11,268.71 1454.47,253.16 1471.49,247.96C1486.2,243.47 1500.8,267.66 1509.29,253.35C1520.14,235.07 1543.45,251.35 1532,270.83Z" style="fill:url(#_Radial1);fill-rule:nonzero;"/>
        </g>
    </g>
    <defs>
        <radialGradient id="_Radial1" cx="0" cy="0" r="1" gradientUnits="userSpaceOnUse" gradientTransform="matrix(1589.88,0,0,-1978.89,744.998,269.591)"><stop offset="0%" style="stop-color:rgb(173,206,222);stop-opacity:0.37"/><stop offset="2%" style="stop-color:rgb(173,206,222);stop-opacity:0.37"/><stop offset="40%" style="stop-color:rgb(78,148,186);stop-opacity:0.37"/><stop offset="79%" style="stop-color:rgb(86,107,158);stop-opacity:0.37"/><stop offset="100%" style="stop-color:rgb(73,66,102);stop-opacity:0.37"/></radialGradient>
    </defs>
</svg>
