<?xml version="1.0" standalone="no"?>
<!DOCTYPE svg PUBLIC "-//W3C//DTD SVG 1.1//EN" "http://www.w3.org/Graphics/SVG/1.1/DTD/svg11.dtd">
<svg width="100%" height="100%" viewBox="0 0 1584 111" version="1.1" xmlns="http://www.w3.org/2000/svg" xmlns:xlink="http://www.w3.org/1999/xlink" xml:space="preserve" style="fill-rule:evenodd;clip-rule:evenodd;stroke-linejoin:round;stroke-miterlimit:1.41421;">
    <g transform="matrix(1,0,0,1,0.0417478,-235.607)">
        <g transform="matrix(1,0,0,1,62.66,19)">
            <path d="M1517.47,270.68C1495.47,307.75 1471.35,322 1437.04,325.61C1352.13,334.54 1316.61,309.99 1264.22,294.36C1210.37,278.3 1149.93,272.92 1094.35,283.05C1081.46,285.4 1008.69,308.81 926.28,293.3C868.28,282.39 811.23,267.07 753.22,257.4C724.76,252.65 695.76,250.4 667.09,253.21C637.95,256.06 609.09,264.91 580.51,272.21C551.41,279.7 522.39,287.61 493.38,295.6C465.69,303.22 438.45,310.41 410,311.89C357.78,314.62 306.13,300.24 255.47,286.52C204.2,272.63 156.33,256.16 103.56,259.36C77.73,261 47.77,269.59 22.73,277.5C-4.8,286.21 -31.51,298.24 -59,307.2C-61.2,307.92 -64.18,304.02 -61.86,301.89C-20.66,264 31.11,240.13 81.93,232.24C134.87,224.02 187.93,233.66 239.81,246.82C290.94,259.82 341.81,276.25 394.25,277.69C422.18,278.46 448.91,273.32 476.05,265.69C505.31,257.46 534.59,249.29 563.92,241.45C592.82,233.72 621.92,225.11 651.22,220.18C679.9,215.35 709.1,215.86 737.87,219.08C795.17,225.5 851.64,239.35 907.75,254.63C981.01,274.63 1062.22,256.53 1076.11,252.35C1131.01,235.83 1198.2,231.06 1252.57,244.72C1278.99,251.36 1304.4,266.11 1330.66,273.61C1355.41,280.67 1373.33,296.25 1398.74,291.79C1416.18,288.73 1433.88,283.79 1450.98,278.64C1465.77,274.15 1486.18,267.5 1494.71,253.19C1505.59,234.92 1529,251.2 1517.47,270.68Z" style="fill:url(#_Radial1);fill-rule:nonzero;"/>
        </g>
    </g>
    <defs>
        <radialGradient id="_Radial1" cx="0" cy="0" r="1" gradientUnits="userSpaceOnUse" gradientTransform="matrix(1004.3,0,0,-1236.88,786.911,232.315)"><stop offset="0%" style="stop-color:rgb(173,206,222);stop-opacity:0.51"/><stop offset="2%" style="stop-color:rgb(173,206,222);stop-opacity:0.51"/><stop offset="40%" style="stop-color:rgb(78,148,186);stop-opacity:0.51"/><stop offset="79%" style="stop-color:rgb(86,107,158);stop-opacity:0.51"/><stop offset="100%" style="stop-color:rgb(73,66,102);stop-opacity:0.51"/></radialGradient>
    </defs>
</svg>
