<?xml version="1.0" standalone="no"?>
<!DOCTYPE svg PUBLIC "-//W3C//DTD SVG 1.1//EN" "http://www.w3.org/Graphics/SVG/1.1/DTD/svg11.dtd">
<svg width="100%" height="100%" viewBox="0 0 1635 87" version="1.1" xmlns="http://www.w3.org/2000/svg" xmlns:xlink="http://www.w3.org/1999/xlink" xml:space="preserve" style="fill-rule:evenodd;clip-rule:evenodd;stroke-linejoin:round;stroke-miterlimit:1.41421;">
    <g transform="matrix(1,0,0,1,-12.32,-245.423)">
        <g transform="matrix(1,0,0,1,62.66,19)">
            <path d="M1584.61,268.29C1548.61,292.84 1460.12,330.79 1294.78,259.36C1129.44,187.93 1061.35,316.27 886.28,273.87C737.63,237.87 661.62,273.52 530.28,301.77C359.1,338.6 239.15,276.48 130.21,248.58C21.27,220.68 -50.34,264.95 -50.34,264.95L-50.34,239.65C-50.34,239.65 19.37,209.89 132.19,239.65C245.01,269.41 367.56,333.39 532.9,297.65C698.24,261.91 738.45,238.13 874.61,268.65C1010.77,299.17 1084.7,238.89 1177.42,229.96C1270.14,221.03 1294.13,253.77 1347.3,269.39C1400.47,285.01 1482.82,306.59 1584.61,250.79L1584.61,268.29Z" style="fill:white;fill-rule:nonzero;"/>
        </g>
    </g>
</svg>
