<?xml version="1.0" encoding="UTF-8" standalone="no"?>
<!DOCTYPE svg PUBLIC "-//W3C//DTD SVG 1.1//EN" "http://www.w3.org/Graphics/SVG/1.1/DTD/svg11.dtd">
<svg width="100%" height="100%" viewBox="0 0 256 256" version="1.1" xmlns="http://www.w3.org/2000/svg" xmlns:xlink="http://www.w3.org/1999/xlink" xml:space="preserve" style="fill-rule:evenodd;clip-rule:evenodd;stroke-linejoin:round;stroke-miterlimit:1.41421;">
    <g transform="matrix(1,0,0,1,-1056.46,-459.019)">
        <g transform="matrix(1.05708,0,0,1.05708,972.861,375.751)">
            <rect x="79.083" y="78.772" width="242.177" height="242.177" style="fill-opacity:0.686275;"/>
            <clipPath id="_clip1">
                <rect x="79.083" y="78.772" width="242.177" height="242.177"/>
            </clipPath>
            <g clip-path="url(#_clip1)">
                <g transform="matrix(3.97246,0,0,3.97246,38.1845,57.2828)">
                    <path d="M36.068,20.176L7.068,0.176C6.761,-0.035 6.363,-0.057 6.035,0.114C5.706,0.287 5.5,0.627 5.5,0.999L5.5,40.999C5.5,41.371 5.706,41.712 6.035,41.885C6.181,41.961 6.341,41.999 6.5,41.999C6.699,41.999 6.897,41.939 7.068,41.822L36.068,21.822C36.339,21.635 36.5,21.328 36.5,20.999C36.5,20.67 36.338,20.363 36.068,20.176Z" style="fill:rgb(46,46,46);fill-opacity:0.694118;fill-rule:nonzero;"/>
                </g>
                <g transform="matrix(12.0286,0,0,12.0286,-73.3567,-52.5128)">
                    <path d="M36.068,20.176L7.068,0.176C6.761,-0.035 6.363,-0.057 6.035,0.114C5.706,0.287 5.5,0.627 5.5,0.999L5.5,40.999C5.5,41.371 5.706,41.712 6.035,41.885C6.181,41.961 6.341,41.999 6.5,41.999C6.699,41.999 6.897,41.939 7.068,41.822L36.068,21.822C36.339,21.635 36.5,21.328 36.5,20.999C36.5,20.67 36.338,20.363 36.068,20.176Z" style="fill:rgb(46,46,46);fill-opacity:0.694118;fill-rule:nonzero;"/>
                </g>
                <g transform="matrix(8.15035,0,0,8.15035,-42.936,81.3614)">
                    <path d="M36.068,20.176L7.068,0.176C6.761,-0.035 6.363,-0.057 6.035,0.114C5.706,0.287 5.5,0.627 5.5,0.999L5.5,40.999C5.5,41.371 5.706,41.712 6.035,41.885C6.181,41.961 6.341,41.999 6.5,41.999C6.699,41.999 6.897,41.939 7.068,41.822L36.068,21.822C36.339,21.635 36.5,21.328 36.5,20.999C36.5,20.67 36.338,20.363 36.068,20.176Z" style="fill:rgb(46,46,46);fill-opacity:0.694118;fill-rule:nonzero;"/>
                </g>
            </g>
        </g>
        <g transform="matrix(0.800911,0,0,0.800911,235.813,116.869)">
            <path d="M1184.46,512.144C1225.78,512.144 1259.33,545.695 1259.33,587.019C1259.33,628.344 1225.78,661.894 1184.46,661.894C1143.13,661.894 1109.58,628.344 1109.58,587.019C1109.58,545.695 1143.13,512.144 1184.46,512.144ZM1223.33,585.514L1170.32,548.958C1169.76,548.573 1169.03,548.532 1168.43,548.845C1167.83,549.161 1167.45,549.783 1167.45,550.463L1167.45,623.574C1167.45,624.254 1167.83,624.877 1168.43,625.194C1168.7,625.333 1168.99,625.402 1169.28,625.402C1169.64,625.402 1170.01,625.292 1170.32,625.078L1223.33,588.523C1223.82,588.181 1224.11,587.62 1224.11,587.018C1224.11,586.417 1223.82,585.856 1223.33,585.514Z" style="fill:white;fill-opacity:0.847059;"/>
        </g>
    </g>
</svg>
