<?xml version="1.0" standalone="no"?>
<!DOCTYPE svg PUBLIC "-//W3C//DTD SVG 1.1//EN" "http://www.w3.org/Graphics/SVG/1.1/DTD/svg11.dtd">
<svg width="100%" height="100%" viewBox="0 0 1527 547" version="1.1" xmlns="http://www.w3.org/2000/svg" xmlns:xlink="http://www.w3.org/1999/xlink" xml:space="preserve" style="fill-rule:evenodd;clip-rule:evenodd;stroke-linejoin:round;stroke-miterlimit:1.41421;">
    <g transform="matrix(1,0,0,1,-29.17,-251.278)">
        <g transform="matrix(1,0,0,1,62.66,19)">
            <path d="M1493.49,263.25C1426.76,240.44 1356.57,226.93 1286.49,235.88C1228.63,243.26 1174.69,265.51 1118.1,278.45C1035.85,297.078 950.358,295.995 868.61,275.29C804.79,259 742.89,230.45 676.51,232.37C593.42,234.77 521.51,284.24 440.08,299C369.73,311.75 296.91,297.84 227.7,280.92C158.49,264 89,243.81 17.14,243.89C0.18,243.894 -16.752,245.269 -33.49,248L-33.49,779L1493.51,779L1493.49,263.25Z" style="fill:url(#_Linear1);fill-rule:nonzero;"/>
        </g>
    </g>
    <defs>
        <linearGradient id="_Linear1" x1="0" y1="0" x2="1" y2="0" gradientUnits="userSpaceOnUse" gradientTransform="matrix(3.3444e-14,-546.182,546.182,3.3444e-14,730,778.092)"><stop offset="0%" style="stop-color:rgb(39,112,178);stop-opacity:1"/><stop offset="100%" style="stop-color:rgb(114,184,230);stop-opacity:1"/></linearGradient>
    </defs>
</svg>
