<?xml version="1.0" standalone="no"?>
<!DOCTYPE svg PUBLIC "-//W3C//DTD SVG 1.1//EN" "http://www.w3.org/Graphics/SVG/1.1/DTD/svg11.dtd">
<svg width="100%" height="100%" viewBox="0 0 1631 104" version="1.1" xmlns="http://www.w3.org/2000/svg" xmlns:xlink="http://www.w3.org/1999/xlink" xml:space="preserve" style="fill-rule:evenodd;clip-rule:evenodd;stroke-linejoin:round;stroke-miterlimit:1.41421;">
    <g transform="matrix(1,0,0,1,-38.1129,-229.076)">
        <g transform="matrix(1,0,0,1,62.66,19)">
            <path d="M1599.23,248.25C1551.57,277.752 1496.34,292.787 1440.3,291.52C1412.39,290.689 1384.75,285.712 1358.3,276.75C1331.09,267.7 1304.72,255.75 1277.3,247.33C1249.11,238.72 1219.83,233.56 1190.61,236.89C1161.03,240.26 1132.35,249.99 1103.61,258.56C1044.41,276.22 983.94,284.12 923.12,277.75C891.59,274.44 860.58,269.36 828.83,268.4C797.853,267.605 766.857,268.63 736,271.47C674.13,276.9 612.65,289 551.7,302.89C437.31,328.94 321.36,300.83 211.11,266.79C175.92,255.92 140.11,246.66 103.58,244.69C60.48,242.37 17.11,252.96 -22.9,271.82C-23.95,272.32 -25.21,270.37 -24.14,269.54C-0.14,251.01 26.16,237.45 54.65,231.84C80.87,226.68 107.46,226.65 133.81,229.66C191.65,236.26 247.37,258.49 304.01,272.39C360.47,286.24 419.71,306.66 477.61,303.32C522.29,300.74 577.99,271.32 657.26,257.46C719.03,246.68 757.09,237.07 819.45,240.06C850.68,241.56 909.37,260.89 940.45,263.58C970.45,266.17 993.68,267.19 1023.54,263.12C1053.4,259.05 1097.2,239.58 1126.24,230.56C1153.65,222.05 1169.6,213.83 1197.89,210.9C1255.6,204.9 1310.68,233.03 1364.56,251.52C1439.51,277.23 1523.72,284.23 1593.69,243.63C1606.69,236.1 1610.74,241.16 1599.23,248.25Z" style="fill:rgb(219,234,241);fill-opacity:0.32;fill-rule:nonzero;"/>
        </g>
    </g>
</svg>
