<svg id="Layer_1" data-name="Layer 1" xmlns="http://www.w3.org/2000/svg" viewBox="0 0 718.86 38.88"><defs><style>.cls-1{fill:#333;}.cls-2{fill:#ebebeb;fill-rule:evenodd;}</style></defs><title>checkers</title><rect class="cls-1" width="718.86" height="38.88"/><path class="cls-2" d="M560,195.7H540.55v19.44H560Zm349.56,0H890.09v19.44h19.43Zm-38.84,0H851.24v19.44h19.43Zm-38.84,0H812.41v19.44h19.42Zm-38.84,0H773.57v19.44H793Zm-38.83,0H734.73v19.44h19.43Zm-38.84,0H695.9v19.44h19.41Zm-38.84,0H657.06v19.44h19.41Zm-38.84,0H618.21v19.44h19.41Zm-38.83,0H579.37v19.44H598.8Z" transform="translate(-540.5 -195.7)"/><path class="cls-2" d="M890.07,234.58H870.66V215.15h19.41Zm-38.84,0H831.81V215.15h19.41Zm-38.82,0H793V215.15H812.4Zm-38.84,0H754.14V215.15h19.41Zm-38.84,0H715.3V215.15h19.41Zm-38.83,0H676.45V215.15h19.43Zm-38.84,0H637.61V215.15H657Zm-38.84,0H598.79V215.15H618.2Zm-38.84,0H559.94V215.15h19.41Z" transform="translate(-540.5 -195.7)"/><path class="cls-2" d="M909.78,195.7H890.37v19.44h19.41Zm349.56,0h-19.43v19.44h19.43Zm-38.84,0h-19.43v19.44h19.43Zm-38.84,0h-19.42v19.44h19.42Zm-38.84,0H1123.4v19.44h19.41Zm-38.83,0h-19.43v19.44H1104Zm-38.84,0h-19.41v19.44h19.41Zm-38.84,0h-19.41v19.44h19.41Zm-38.84,0H968v19.44h19.41Zm-38.83,0H929.2v19.44h19.43Z" transform="translate(-540.5 -195.7)"/><path class="cls-2" d="M1239.89,234.58h-19.41V215.15h19.41Zm-38.84,0h-19.41V215.15H1201Zm-38.82,0h-19.43V215.15h19.43Zm-38.84,0H1104V215.15h19.41Zm-38.84,0h-19.41V215.15h19.41Zm-38.83,0h-19.43V215.15h19.43Zm-38.84,0H987.44V215.15h19.43Zm-38.84,0H948.61V215.15H968Zm-38.84,0H909.77V215.15h19.41Z" transform="translate(-540.5 -195.7)"/></svg>