<svg xmlns="http://www.w3.org/2000/svg" xmlns:xlink="http://www.w3.org/1999/xlink" viewBox="0 0 720.02 315.38"><defs><style>.cls-1{isolation:isolate;}.cls-2{fill:url(#radial-gradient);}.cls-3{mix-blend-mode:overlay;}.cls-4{fill:#fff;}</style><radialGradient id="radial-gradient" cx="3258.73" cy="354.7" r="237.68" gradientTransform="translate(-7568.27 -220.3) scale(2.43 1.07)" gradientUnits="userSpaceOnUse"><stop offset="0" stop-color="#0e6db4"/><stop offset="0.06" stop-color="#0e67ab"/><stop offset="0.71" stop-color="#122c4b"/><stop offset="1" stop-color="#131425"/></radialGradient></defs><title>result_background</title><g class="cls-1"><g id="Layer_1" data-name="Layer 1"><rect class="cls-2" width="720.02" height="315.38"/><g class="cls-3"><polygon class="cls-4" points="170.75 51.74 170.47 53.67 168.54 53.95 170.47 54.24 170.75 56.17 171.04 54.24 172.97 53.95 171.04 53.67 170.75 51.74"/><polygon class="cls-4" points="454.83 30.24 454.54 32.17 452.62 32.45 454.54 32.74 454.83 34.67 455.12 32.74 457.04 32.45 455.12 32.17 454.83 30.24"/><polygon class="cls-4" points="353.83 19.45 353.54 21.38 351.62 21.67 353.54 21.95 353.83 23.88 354.12 21.95 356.04 21.67 354.12 21.38 353.83 19.45"/><polygon class="cls-4" points="197.75 14.24 197.47 16.17 195.54 16.45 197.47 16.74 197.75 18.67 198.04 16.74 199.97 16.45 198.04 16.17 197.75 14.24"/><polygon class="cls-4" points="134.33 25.24 134.04 27.17 132.12 27.45 134.04 27.74 134.33 29.67 134.62 27.74 136.54 27.45 134.62 27.17 134.33 25.24"/><polygon class="cls-4" points="531.33 38.74 531.04 40.67 529.12 40.95 531.04 41.24 531.33 43.17 531.62 41.24 533.54 40.95 531.62 40.67 531.33 38.74"/><polygon class="cls-4" points="146.33 60.67 146.04 62.59 144.12 62.88 146.04 63.17 146.33 65.09 146.62 63.17 148.54 62.88 146.62 62.59 146.33 60.67"/><polygon class="cls-4" points="145.33 134.74 145.04 136.67 143.12 136.96 145.04 137.24 145.33 139.17 145.62 137.24 147.54 136.96 145.62 136.67 145.33 134.74"/><polygon class="cls-4" points="263.71 155.67 263.42 157.59 261.5 157.88 263.42 158.17 263.71 160.09 264 158.17 265.92 157.88 264 157.59 263.71 155.67"/><polygon class="cls-4" points="129.33 183.17 129.04 185.09 127.12 185.38 129.04 185.67 129.33 187.59 129.62 185.67 131.54 185.38 129.62 185.09 129.33 183.17"/><polygon class="cls-4" points="145.55 239.36 145.26 241.28 143.34 241.57 145.26 241.86 145.55 243.78 145.84 241.86 147.76 241.57 145.84 241.28 145.55 239.36"/><polygon class="cls-4" points="379.75 67.17 379.46 69.09 377.54 69.38 379.46 69.67 379.75 71.59 380.04 69.67 381.96 69.38 380.04 69.09 379.75 67.17"/><polygon class="cls-4" points="413.42 190.41 413.13 192.33 411.21 192.62 413.13 192.91 413.42 194.83 413.71 192.91 415.63 192.62 413.71 192.33 413.42 190.41"/><polygon class="cls-4" points="529.83 143.24 529.54 145.17 527.62 145.46 529.54 145.74 529.83 147.67 530.12 145.74 532.04 145.46 530.12 145.17 529.83 143.24"/><polygon class="cls-4" points="128.91 268.84 128.62 270.76 126.7 271.05 128.62 271.34 128.91 273.26 129.2 271.34 131.12 271.05 129.2 270.76 128.91 268.84"/><polygon class="cls-4" points="497.25 193.46 496.96 195.38 495.04 195.67 496.96 195.96 497.25 197.88 497.54 195.96 499.46 195.67 497.54 195.38 497.25 193.46"/><polygon class="cls-4" points="356 156.5 355.71 158.42 353.79 158.71 355.71 159 356 160.92 356.29 159 358.21 158.71 356.29 158.42 356 156.5"/><polygon class="cls-4" points="24.75 227.17 24.46 229.09 22.54 229.38 24.46 229.67 24.75 231.59 25.04 229.67 26.96 229.38 25.04 229.09 24.75 227.17"/><polygon class="cls-4" points="88.59 185.46 88.3 187.38 86.38 187.67 88.3 187.96 88.59 189.88 88.88 187.96 90.8 187.67 88.88 187.38 88.59 185.46"/><polygon class="cls-4" points="610.66 44.5 610.38 46.42 608.45 46.71 610.38 47 610.66 48.92 610.95 47 612.88 46.71 610.95 46.42 610.66 44.5"/><polygon class="cls-4" points="32.66 51.74 32.38 53.67 30.45 53.95 32.38 54.24 32.66 56.17 32.95 54.24 34.88 53.95 32.95 53.67 32.66 51.74"/><polygon class="cls-4" points="66.04 98.67 65.75 100.59 63.83 100.88 65.75 101.17 66.04 103.09 66.33 101.17 68.25 100.88 66.33 100.59 66.04 98.67"/><polygon class="cls-4" points="26.75 14.74 26.46 16.67 24.54 16.95 26.46 17.24 26.75 19.17 27.04 17.24 28.96 16.95 27.04 16.67 26.75 14.74"/><polygon class="cls-4" points="85.04 27.67 84.75 29.59 82.83 29.88 84.75 30.17 85.04 32.09 85.33 30.17 87.25 29.88 85.33 29.59 85.04 27.67"/><polygon class="cls-4" points="38.09 136.41 37.8 138.33 35.88 138.62 37.8 138.91 38.09 140.83 38.38 138.91 40.3 138.62 38.38 138.33 38.09 136.41"/><polygon class="cls-4" points="383.04 192.33 382.75 194.26 380.83 194.54 382.75 194.83 383.04 196.76 383.33 194.83 385.25 194.54 383.33 194.26 383.04 192.33"/><polygon class="cls-4" points="669.71 56.33 669.42 58.26 667.5 58.55 669.42 58.83 669.71 60.76 670 58.83 671.92 58.55 670 58.26 669.71 56.33"/><polygon class="cls-4" points="682.66 32.5 682.38 34.42 680.45 34.71 682.38 35 682.66 36.92 682.95 35 684.88 34.71 682.95 34.42 682.66 32.5"/><polygon class="cls-4" points="683.71 93.67 683.42 95.59 681.5 95.88 683.42 96.17 683.71 98.09 684 96.17 685.92 95.88 684 95.59 683.71 93.67"/><polygon class="cls-4" points="562 189.08 561.71 191 559.78 191.29 561.71 191.58 562 193.5 562.28 191.58 564.21 191.29 562.28 191 562 189.08"/><polygon class="cls-4" points="524.75 82.17 524.47 84.09 522.54 84.38 524.47 84.67 524.75 86.59 525.04 84.67 526.97 84.38 525.04 84.09 524.75 82.17"/><polygon class="cls-4" points="690.09 208.41 689.8 210.33 687.88 210.62 689.8 210.91 690.09 212.83 690.38 210.91 692.3 210.62 690.38 210.33 690.09 208.41"/></g></g></g></svg>