<svg xmlns="http://www.w3.org/2000/svg" xmlns:xlink="http://www.w3.org/1999/xlink" viewBox="0 0 1061.42 1061.42"><defs><style>.cls-1{isolation:isolate;}.cls-2{opacity:0.25;mix-blend-mode:overlay;fill:url(#radial-gradient);}</style><radialGradient id="radial-gradient" cx="786.5" cy="324.26" r="451.02" gradientTransform="translate(-255.79 206.45)" gradientUnits="userSpaceOnUse"><stop offset="0" stop-color="#fff"/><stop offset="0.1" stop-color="#fff" stop-opacity="0.96"/><stop offset="0.25" stop-color="#fff" stop-opacity="0.87"/><stop offset="0.45" stop-color="#fff" stop-opacity="0.71"/><stop offset="0.68" stop-color="#fff" stop-opacity="0.5"/><stop offset="0.94" stop-color="#fff" stop-opacity="0.22"/><stop offset="1" stop-color="#fff" stop-opacity="0.15"/></radialGradient></defs><title>shine</title><g class="cls-1"><g id="Layer_1" data-name="Layer 1"><polygon class="cls-2" points="530.72 0 544.61 265.72 586.2 2.9 572.22 268.62 641.05 11.6 599.39 274.4 694.71 25.97 625.82 282.98 746.57 45.88 651.18 294.28 796.07 71.1 675.24 308.17 842.67 101.35 697.71 324.49 885.83 136.32 718.35 343.08 925.12 175.6 736.94 363.71 960.07 218.76 753.27 386.19 990.33 265.36 767.15 410.24 1015.55 314.85 778.45 435.62 1035.45 366.71 787.04 462.03 1049.84 420.37 792.81 489.2 1058.52 475.24 795.71 516.83 1061.42 530.71 795.71 544.6 1058.52 586.19 792.81 572.23 1049.84 641.06 787.04 599.39 1035.45 694.71 778.45 625.81 1015.55 746.57 767.15 651.18 990.33 796.07 753.27 675.24 960.07 842.66 736.94 697.71 925.12 885.82 718.35 718.35 885.83 925.11 697.71 736.93 842.67 960.07 675.24 753.25 796.07 990.33 651.18 767.14 746.57 1015.54 625.82 778.44 694.71 1035.45 599.39 787.03 641.05 1049.83 572.22 792.81 586.2 1058.52 544.61 795.71 530.72 1061.42 516.83 795.71 475.24 1058.52 489.2 792.81 420.37 1049.83 462.03 787.03 366.71 1035.45 435.63 778.44 314.85 1015.54 410.24 767.14 265.36 990.33 386.19 753.25 218.76 960.07 363.72 736.93 175.6 925.11 343.07 718.35 136.32 885.82 324.49 697.71 101.35 842.66 308.17 675.24 71.1 796.07 294.28 651.18 45.88 746.57 282.98 625.81 25.97 694.71 274.39 599.39 11.59 641.06 268.63 572.23 2.9 586.19 265.72 544.6 0 530.71 265.72 516.83 2.9 475.24 268.63 489.2 11.59 420.37 274.39 462.03 25.97 366.71 282.98 435.62 45.88 314.85 294.28 410.24 71.1 265.36 308.17 386.19 101.35 218.76 324.49 363.71 136.32 175.6 343.07 343.08 175.6 136.32 363.72 324.49 218.76 101.35 386.19 308.17 265.36 71.1 410.24 294.28 314.85 45.88 435.63 282.98 366.71 25.97 462.03 274.4 420.37 11.6 489.2 268.62 475.24 2.9 516.83 265.72 530.72 0"/></g></g></svg>