<svg id="Layer_1" data-name="Layer 1" xmlns="http://www.w3.org/2000/svg" xmlns:xlink="http://www.w3.org/1999/xlink" viewBox="0 0 322.97 322.97"><defs><style>.cls-1{fill:none;}.cls-2{fill:#fff;}.cls-3{clip-path:url(#clip-path);}</style><clipPath id="clip-path" transform="translate(-177.52 -225.98)"><circle class="cls-1" cx="340" cy="388.46" r="134.05"/></clipPath></defs><title>timer_ring</title><path class="cls-2" d="M340,259.42a129,129,0,1,1-91.25,37.8A128.2,128.2,0,0,1,340,259.42m0-5a134,134,0,1,0,134,134,134,134,0,0,0-134-134Z" transform="translate(-177.52 -225.98)"/><g class="cls-3"><path class="cls-2" d="M340.07,272.86a2.46,2.46,0,0,1-2.43-2.61V228.58a2.44,2.44,0,1,1,4.86,0v41.67A2.46,2.46,0,0,1,340.07,272.86Z" transform="translate(-177.52 -225.98)"/><path class="cls-2" d="M340.07,548.94a2.46,2.46,0,0,1-2.43-2.6V504.67a2.44,2.44,0,1,1,4.86,0v41.67A2.46,2.46,0,0,1,340.07,548.94Z" transform="translate(-177.52 -225.98)"/><path class="cls-2" d="M497.88,390.94H456.21c-1.44,0-2.6-2.21-2.6-3.64s1.17-3.64,2.6-3.64h41.67c1.44,0,2.6,2.21,2.6,3.64S499.32,390.94,497.88,390.94Z" transform="translate(-177.52 -225.98)"/><path class="cls-2" d="M221.79,390.94H180.12c-1.44,0-2.6-2.21-2.6-3.64s1.17-3.64,2.6-3.64h41.67c1.44,0,2.61,2.21,2.61,3.64S223.23,390.94,221.79,390.94Z" transform="translate(-177.52 -225.98)"/><path class="cls-2" d="M273,283.6a2.6,2.6,0,0,1-2.22-1.24L254,255.28a2.6,2.6,0,0,1,4.43-2.74l16.77,27.08a2.61,2.61,0,0,1-2.21,4Z" transform="translate(-177.52 -225.98)"/><path class="cls-2" d="M423.49,526.69a2.6,2.6,0,0,1-2.22-1.23l-16.76-27.08a2.6,2.6,0,0,1,4.43-2.74l16.76,27.08a2.6,2.6,0,0,1-2.21,4Z" transform="translate(-177.52 -225.98)"/><path class="cls-2" d="M447.87,324.74a2.6,2.6,0,0,1-1.37-4.82l27.08-16.77a2.61,2.61,0,0,1,2.75,4.43l-27.08,16.77A2.6,2.6,0,0,1,447.87,324.74Z" transform="translate(-177.52 -225.98)"/><path class="cls-2" d="M204.78,475.23a2.6,2.6,0,0,1-1.37-4.82l27.08-16.77a2.6,2.6,0,0,1,2.74,4.43l-27.08,16.77A2.6,2.6,0,0,1,204.78,475.23Z" transform="translate(-177.52 -225.98)"/><path class="cls-2" d="M228.95,329.68a2.61,2.61,0,0,1-1.27-.33l-27.81-15.53a2.6,2.6,0,0,1,2.54-4.55l27.81,15.53a2.61,2.61,0,0,1-1.27,4.88Z" transform="translate(-177.52 -225.98)"/><path class="cls-2" d="M478.58,469.06a2.59,2.59,0,0,1-1.27-.33L449.5,453.2a2.6,2.6,0,0,1,2.54-4.55l27.81,15.53a2.61,2.61,0,0,1-1.27,4.88Z" transform="translate(-177.52 -225.98)"/><path class="cls-2" d="M401.79,280.69a2.6,2.6,0,0,1-2.27-3.87L415,249a2.6,2.6,0,0,1,4.55,2.54l-15.52,27.81A2.61,2.61,0,0,1,401.79,280.69Z" transform="translate(-177.52 -225.98)"/><path class="cls-2" d="M262.41,530.33a2.6,2.6,0,0,1-2.27-3.87l15.53-27.81a2.6,2.6,0,0,1,4.55,2.54L264.69,529A2.6,2.6,0,0,1,262.41,530.33Z" transform="translate(-177.52 -225.98)"/><path class="cls-2" d="M315,265.31a.87.87,0,0,1-.85-.7l-6.24-31.24a.87.87,0,0,1,1.7-.34l6.24,31.24a.87.87,0,0,1-.68,1Z" transform="translate(-177.52 -225.98)"/><path class="cls-2" d="M371,545.67a.87.87,0,0,1-.85-.7l-6.24-31.23a.87.87,0,1,1,1.7-.34l6.24,31.23a.87.87,0,0,1-.68,1Z" transform="translate(-177.52 -225.98)"/><path class="cls-2" d="M464.42,365a.87.87,0,0,1-.17-1.72L495.49,357a.88.88,0,0,1,1,.68.87.87,0,0,1-.68,1L464.6,365Z" transform="translate(-177.52 -225.98)"/><path class="cls-2" d="M184.06,421a.87.87,0,0,1-.17-1.72L215.13,413a.87.87,0,0,1,.34,1.7L184.24,421Z" transform="translate(-177.52 -225.98)"/><path class="cls-2" d="M303,268.3a.87.87,0,0,1-.83-.62L293,237.2a.87.87,0,1,1,1.66-.5l9.23,30.48a.87.87,0,0,1-.58,1.08A.82.82,0,0,1,303,268.3Z" transform="translate(-177.52 -225.98)"/><path class="cls-2" d="M385.93,541.92a.87.87,0,0,1-.83-.62l-9.23-30.48a.87.87,0,0,1,1.66-.5l9.23,30.48a.87.87,0,0,1-.58,1.08A.88.88,0,0,1,385.93,541.92Z" transform="translate(-177.52 -225.98)"/><path class="cls-2" d="M461.44,353a.87.87,0,0,1-.25-1.7l30.48-9.24a.87.87,0,1,1,.51,1.66L461.69,353A.9.9,0,0,1,461.44,353Z" transform="translate(-177.52 -225.98)"/><path class="cls-2" d="M187.81,435.93a.87.87,0,0,1-.25-1.7L218,425a.87.87,0,0,1,.5,1.66l-30.48,9.24A.88.88,0,0,1,187.81,435.93Z" transform="translate(-177.52 -225.98)"/><path class="cls-2" d="M327.36,262.16c-.44,0-.82.31-.86-.14l-3.13-31.38c0-.48.3-.74.78-.79a1,1,0,0,1,.95.86l3.13,31.09c0,.48-.3.34-.78.34Z" transform="translate(-177.52 -225.98)"/><path class="cls-2" d="M355.49,548a.87.87,0,0,1-.86-.78L351.5,515.5a.87.87,0,0,1,.78-1,.88.88,0,0,1,.95.78l3.13,31.7a.87.87,0,0,1-.78.95Z" transform="translate(-177.52 -225.98)"/><path class="cls-2" d="M466.27,376.36c-.44,0-.82.17-.86-.28s.3-.65.78-.7l31.7-3a1,1,0,0,1,.95.84c0,.48-.3.43-.78.48l-31.7,2.66Z" transform="translate(-177.52 -225.98)"/><path class="cls-2" d="M181.75,405.5a.87.87,0,0,1-.08-1.73l31.7-3.14a.9.9,0,0,1,.95.78.87.87,0,0,1-.78,1l-31.7,3.14Z" transform="translate(-177.52 -225.98)"/><path class="cls-2" d="M281.13,277.23a.87.87,0,0,1-.77-.47l-14.72-28.25a.87.87,0,1,1,1.54-.8L281.9,276a.87.87,0,0,1-.37,1.17A.88.88,0,0,1,281.13,277.23Z" transform="translate(-177.52 -225.98)"/><path class="cls-2" d="M413.31,530.75a.86.86,0,0,1-.77-.47L397.82,502a.87.87,0,0,1,1.54-.8l14.72,28.24a.87.87,0,0,1-.77,1.27Z" transform="translate(-177.52 -225.98)"/><path class="cls-2" d="M452.5,331.14a.87.87,0,0,1-.4-1.64l28.24-14.73a.88.88,0,0,1,1.17.37.87.87,0,0,1-.37,1.17L452.9,331A.87.87,0,0,1,452.5,331.14Z" transform="translate(-177.52 -225.98)"/><path class="cls-2" d="M199,463.32a.87.87,0,0,1-.4-1.64L226.83,447a.87.87,0,0,1,.8,1.54l-28.25,14.72A.87.87,0,0,1,199,463.32Z" transform="translate(-177.52 -225.98)"/><path class="cls-2" d="M291.63,272.35a.87.87,0,0,1-.8-.54l-12.09-29.47a.87.87,0,1,1,1.61-.66l12.09,29.47a.87.87,0,0,1-.48,1.13A.86.86,0,0,1,291.63,272.35Z" transform="translate(-177.52 -225.98)"/><path class="cls-2" d="M400.19,536.85a.87.87,0,0,1-.8-.54l-12.09-29.47a.87.87,0,0,1,.47-1.13.88.88,0,0,1,1.13.47L401,535.65a.87.87,0,0,1-.8,1.2Z" transform="translate(-177.52 -225.98)"/><path class="cls-2" d="M457.38,341.64A.87.87,0,0,1,457,340l29.47-12.09a.87.87,0,1,1,.66,1.61l-29.47,12.09A.84.84,0,0,1,457.38,341.64Z" transform="translate(-177.52 -225.98)"/><path class="cls-2" d="M192.88,450.19a.87.87,0,0,1-.33-1.67L222,436.43a.87.87,0,1,1,.66,1.61l-29.46,12.1A.89.89,0,0,1,192.88,450.19Z" transform="translate(-177.52 -225.98)"/><path class="cls-2" d="M384.2,270.83a.83.83,0,0,1-.3-.05.87.87,0,0,1-.51-1.12l11.12-29.85a.87.87,0,0,1,1.63.61L385,270.27A.87.87,0,0,1,384.2,270.83Z" transform="translate(-177.52 -225.98)"/><path class="cls-2" d="M284.41,538.76a.89.89,0,0,1-.3-.05.87.87,0,0,1-.51-1.12l11.12-29.85a.87.87,0,0,1,1.63.61l-11.12,29.85A.87.87,0,0,1,284.41,538.76Z" transform="translate(-177.52 -225.98)"/><path class="cls-2" d="M488.75,445.32a.89.89,0,0,1-.3-.05L458.6,434.15a.87.87,0,1,1,.61-1.63l29.85,11.11a.87.87,0,0,1-.3,1.68Z" transform="translate(-177.52 -225.98)"/><path class="cls-2" d="M220.82,345.53a.86.86,0,0,1-.3-.05l-29.85-11.12a.87.87,0,0,1,.61-1.63l29.85,11.12a.87.87,0,0,1-.3,1.68Z" transform="translate(-177.52 -225.98)"/><path class="cls-2" d="M372.47,267.1a.79.79,0,0,1-.22,0,.87.87,0,0,1-.62-1.06l8.18-30.79a.87.87,0,1,1,1.68.44l-8.18,30.79A.87.87,0,0,1,372.47,267.1Z" transform="translate(-177.52 -225.98)"/><path class="cls-2" d="M299.07,543.42a.82.82,0,0,1-.22,0,.87.87,0,0,1-.62-1.06l8.18-30.78a.86.86,0,0,1,1.06-.62.87.87,0,0,1,.62,1.06l-8.18,30.78A.87.87,0,0,1,299.07,543.42Z" transform="translate(-177.52 -225.98)"/><path class="cls-2" d="M493.42,430.66a.8.8,0,0,1-.22,0l-30.78-8.17a.87.87,0,1,1,.44-1.68l30.78,8.17a.87.87,0,0,1-.22,1.71Z" transform="translate(-177.52 -225.98)"/><path class="cls-2" d="M217.1,357.26l-.22,0-30.79-8.18a.87.87,0,0,1,.44-1.68l30.79,8.18a.87.87,0,0,1-.22,1.71Z" transform="translate(-177.52 -225.98)"/><path class="cls-2" d="M393.48,274.71a.84.84,0,0,1-.37-.08.87.87,0,0,1-.42-1.15l13.45-28.88a.87.87,0,1,1,1.57.73l-13.45,28.88A.86.86,0,0,1,393.48,274.71Z" transform="translate(-177.52 -225.98)"/><path class="cls-2" d="M272.8,533.9a.84.84,0,0,1-.37-.08.87.87,0,0,1-.42-1.15l13.45-28.87a.87.87,0,0,1,1.58.73L273.59,533.4A.87.87,0,0,1,272.8,533.9Z" transform="translate(-177.52 -225.98)"/><path class="cls-2" d="M483.89,456.93a.87.87,0,0,1-.37-.08L454.65,443.4a.87.87,0,0,1,.73-1.57l28.87,13.44a.87.87,0,0,1-.37,1.65Z" transform="translate(-177.52 -225.98)"/><path class="cls-2" d="M224.71,336.25a.86.86,0,0,1-.37-.08l-28.88-13.45a.87.87,0,1,1,.73-1.57l28.88,13.45a.87.87,0,0,1-.37,1.66Z" transform="translate(-177.52 -225.98)"/><path class="cls-2" d="M349.15,262.16h-.06c-.48,0-.84.06-.8-.42l2.33-31.52a.79.79,0,0,1,.93-.68.93.93,0,0,1,.8,1L350,261.83C350,262.29,349.6,262.16,349.15,262.16Z" transform="translate(-177.52 -225.98)"/><path class="cls-2" d="M328.25,546.44h-.07c-.48,0-.84.49-.8,0l2.33-31.3c0-.48.47-.6.93-.56a1,1,0,0,1,.8,1l-2.34,30.88C329.08,547,328.69,546.44,328.25,546.44Z" transform="translate(-177.52 -225.98)"/><path class="cls-2" d="M498.32,403.09h-.06L466.49,400c-.48,0-.84-.85-.8-1.33s.48-1,.93-1l31.76,2.22c.48,0,.84,1.2.8,1.68S498.77,403.09,498.32,403.09Z" transform="translate(-177.52 -225.98)"/><path class="cls-2" d="M213.18,381.22h-.06l-31.77-2.65a1,1,0,0,1-.8-1.09,1,1,0,0,1,.93-.88l31.77,2.29c.48,0,.84.75.8,1.23S213.63,381.22,213.18,381.22Z" transform="translate(-177.52 -225.98)"/><path class="cls-2" d="M360.64,264.55h-.14a.87.87,0,0,1-.72-1L365,232.12a.86.86,0,0,1,1-.72.87.87,0,0,1,.71,1l-5.21,31.42A.87.87,0,0,1,360.64,264.55Z" transform="translate(-177.52 -225.98)"/><path class="cls-2" d="M313.87,546.61h-.14a.87.87,0,0,1-.71-1l5.21-31.42a.87.87,0,0,1,1.71.29l-5.21,31.42A.87.87,0,0,1,313.87,546.61Z" transform="translate(-177.52 -225.98)"/><path class="cls-2" d="M496.6,415.86h-.14L465,410.64a.87.87,0,0,1-.71-1,.86.86,0,0,1,1-.71l31.42,5.21a.87.87,0,0,1-.14,1.72Z" transform="translate(-177.52 -225.98)"/><path class="cls-2" d="M214.55,369.09h-.14L183,363.87a.87.87,0,0,1-.71-1,.85.85,0,0,1,1-.71l31.42,5.21a.87.87,0,0,1-.14,1.73Z" transform="translate(-177.52 -225.98)"/><path class="cls-2" d="M435.54,306.31a.87.87,0,0,1-.57-1.52l24-21a.87.87,0,1,1,1.14,1.31l-24,21A.86.86,0,0,1,435.54,306.31Z" transform="translate(-177.52 -225.98)"/><path class="cls-2" d="M220.2,494.38a.87.87,0,0,1-.57-1.52l24-20.95a.87.87,0,0,1,1.14,1.31l-24,20.95A.87.87,0,0,1,220.2,494.38Z" transform="translate(-177.52 -225.98)"/><path class="cls-2" d="M444.37,509.53a.87.87,0,0,1-.65-.3l-21-24a.87.87,0,1,1,1.31-1.14l21,24a.87.87,0,0,1-.66,1.44Z" transform="translate(-177.52 -225.98)"/><path class="cls-2" d="M256.3,294.19a.87.87,0,0,1-.65-.3l-21-24a.87.87,0,1,1,1.31-1.14l21,24a.87.87,0,0,1-.08,1.23A.88.88,0,0,1,256.3,294.19Z" transform="translate(-177.52 -225.98)"/><path class="cls-2" d="M427,297.45a.87.87,0,0,1-.63-1.46l21.85-23.18a.87.87,0,1,1,1.26,1.19l-21.85,23.18A.86.86,0,0,1,427,297.45Z" transform="translate(-177.52 -225.98)"/><path class="cls-2" d="M230.87,505.47a.87.87,0,0,1-.63-1.46l21.85-23.17a.87.87,0,0,1,1.26,1.19L231.5,505.19A.88.88,0,0,1,230.87,505.47Z" transform="translate(-177.52 -225.98)"/><path class="cls-2" d="M455.46,498.86a.87.87,0,0,1-.6-.23l-23.18-21.84a.87.87,0,1,1,1.19-1.27l23.18,21.85a.87.87,0,0,1-.59,1.5Z" transform="translate(-177.52 -225.98)"/><path class="cls-2" d="M247.44,302.73a.86.86,0,0,1-.59-.23l-23.18-21.85a.87.87,0,1,1,1.19-1.26L248,301.22a.87.87,0,0,1-.6,1.5Z" transform="translate(-177.52 -225.98)"/><path class="cls-2" d="M442.4,314.89a.87.87,0,0,1-.51-1.57l25.71-18.8a.87.87,0,1,1,1,1.4l-25.71,18.8A.87.87,0,0,1,442.4,314.89Z" transform="translate(-177.52 -225.98)"/><path class="cls-2" d="M211.61,483.64a.87.87,0,0,1-.51-1.57l25.71-18.8a.87.87,0,1,1,1,1.4l-25.71,18.8A.85.85,0,0,1,211.61,483.64Z" transform="translate(-177.52 -225.98)"/><path class="cls-2" d="M433.64,518.12a.87.87,0,0,1-.7-.36l-18.8-25.71a.87.87,0,1,1,1.4-1l18.8,25.71a.86.86,0,0,1-.19,1.21A.85.85,0,0,1,433.64,518.12Z" transform="translate(-177.52 -225.98)"/><path class="cls-2" d="M264.88,287.33a.86.86,0,0,1-.7-.36l-18.81-25.71a.87.87,0,0,1,1.4-1L265.58,286a.87.87,0,0,1-.7,1.38Z" transform="translate(-177.52 -225.98)"/><path class="cls-2" d="M409.43,283.59a.85.85,0,0,1-.47-.14.87.87,0,0,1-.25-1.2l17.45-26.65a.87.87,0,0,1,1.45.95l-17.45,26.65A.87.87,0,0,1,409.43,283.59Z" transform="translate(-177.52 -225.98)"/><path class="cls-2" d="M252.84,522.8a.87.87,0,0,1-.72-1.35l17.45-26.65a.87.87,0,0,1,1.45,1l-17.45,26.65A.86.86,0,0,1,252.84,522.8Z" transform="translate(-177.52 -225.98)"/><path class="cls-2" d="M472.79,476.89a.85.85,0,0,1-.47-.14L445.67,459.3a.87.87,0,1,1,.95-1.45l26.65,17.44a.87.87,0,0,1-.47,1.59Z" transform="translate(-177.52 -225.98)"/><path class="cls-2" d="M233.58,320.3a.85.85,0,0,1-.47-.14l-26.65-17.45a.87.87,0,1,1,1-1.45l26.65,17.45a.87.87,0,0,1-.48,1.59Z" transform="translate(-177.52 -225.98)"/><path class="cls-2" d="M417.81,289.57a.85.85,0,0,1-.53-.18.87.87,0,0,1-.15-1.22L436.68,263a.87.87,0,0,1,1.37,1.06L418.5,289.23A.87.87,0,0,1,417.81,289.57Z" transform="translate(-177.52 -225.98)"/><path class="cls-2" d="M242.36,515.31a.87.87,0,0,1-.69-1.4l19.54-25.15a.87.87,0,1,1,1.37,1.06L243,515A.87.87,0,0,1,242.36,515.31Z" transform="translate(-177.52 -225.98)"/><path class="cls-2" d="M465.31,487.37a.85.85,0,0,1-.53-.18l-25.15-19.55a.87.87,0,0,1,1.07-1.37l25.15,19.55a.87.87,0,0,1-.53,1.55Z" transform="translate(-177.52 -225.98)"/><path class="cls-2" d="M239.57,311.92a.88.88,0,0,1-.53-.18l-25.15-19.55a.87.87,0,0,1,1.07-1.37l25.15,19.55a.87.87,0,0,1-.53,1.55Z" transform="translate(-177.52 -225.98)"/></g></svg>