<svg id="Layer_3" data-name="Layer 3" xmlns="http://www.w3.org/2000/svg" viewBox="0 0 117.56 158.41"><defs><style>.cls-1,.cls-5{fill:#fff;}.cls-1,.cls-2,.cls-3,.cls-4,.cls-6{fill-rule:evenodd;}.cls-2{fill:#f16465;}.cls-3{fill:#d3e0df;}.cls-4{fill:#c7403f;}.cls-6{fill:#a97c50;}</style></defs><title>parachute</title><path class="cls-1" d="M385.53,167c6.19-33.6-14.33-65.54-45.83-71.35s-62.07,16.72-68.26,50.32Z" transform="translate(-271.44 -94.4)"/><path class="cls-2" d="M388.38,151.51c4.62-25.06-17.17-50.09-48.68-55.9s-60.79,9.8-65.41,34.86Z" transform="translate(-271.44 -94.4)"/><path class="cls-1" d="M372.68,136.93l-78.52-14.48c3.47-18.82,23.86-30.84,45.54-26.84S376.15,118.11,372.68,136.93Z" transform="translate(-271.44 -94.4)"/><path class="cls-2" d="M320.69,122.87l27.05,5c3-16.43-.57-30.87-8-32.25S323.72,106.44,320.69,122.87Z" transform="translate(-271.44 -94.4)"/><path class="cls-3" d="M370.63,171.95l-.34-.07h0l-.33-.07h0l-.32-.07h0l-.64-.16h0l-.27-.07h0l-.29-.08h-.07l-.26-.08h0l-.28-.09h0l-.27-.09h0l-.06,0L367,171l-.06,0h0l-.06,0-.2-.07-.09,0-.24-.09h0v.12h0V171h0v.07h0s0,.09,0,.13h0v0c0,.06,0,.12,0,.18v0c0,.07,0,.13,0,.2-.81,4.39-7.52,6.83-15,5.45l-.3-.06-.11,0-.22,0-.08,0-.29-.06-.1,0-.23-.06-.08,0-.24-.06-.08,0-.29-.08-.06,0-.25-.07-.08,0-.22-.07-.08,0-.28-.09-.09,0-.21-.07-.09,0-.21-.07-.12,0-.21-.08-.12,0-.18-.07-.08,0-.27-.11h0l-.24-.1-.08,0-.22-.1,0,0-.26-.12-.07,0-.19-.09-.08,0-.2-.1,0,0L345,175l-.08,0-.16-.09-.08,0-.2-.11,0,0h0l-.21-.12-.1-.06-.13-.08-.09-.05-.22-.14h0l-.21-.14-.08-.05-.14-.1-.08-.05-.19-.14h0l0,0-.15-.11-.08-.06-.13-.1-.07-.06-.18-.15-.05,0-.14-.12-.07-.06-.13-.11,0,0-.16-.15-.07-.07-.1-.1-.07-.07-.1-.1-.07-.08-.13-.14-.05-.06-.1-.11-.06-.06-.1-.12-.08-.1-.09-.11-.05-.07-.08-.1-.06-.07-.12-.16,0,0-.09-.13,0-.07-.06-.1-.05-.08h0l-.09-.15h0l0-.08-.06-.1,0-.08,0-.09,0-.08a4.87,4.87,0,0,1-.07,1.14c-.81,4.39-7.52,6.83-15,5.45s-12.87-6.05-12.06-10.44a4.86,4.86,0,0,1,.34-1.09l-.07.06-.08.07-.07.06-.09.07-.07.06h0l-.14.1h0l-.07.06-.1.07-.07.05-.13.09,0,0-.17.11-.08,0-.11.07-.08,0-.12.07-.11.06-.14.08-.07,0-.14.07-.07,0-.17.08-.1,0-.13.06-.09,0-.13.06-.09,0-.21.08-.06,0-.16.06-.08,0-.17.06-.06,0-.22.07-.09,0-.15,0-.09,0-.18.05h-.06l-.23.06-.09,0-.16,0-.09,0-.25.06h0l-.25.05-.1,0-.15,0-.11,0-.24,0H307l-.23,0h-.09l-.19,0h-.09l-.27,0h0l-.23,0h-.09l-.21,0h-.08l-.28,0h-2.33l-.29,0h-.09l-.22,0h-.09l-.26,0h-.06l-.3,0h-.08l-.25,0h-.08l-.23,0h-.1l-.29,0h-.08l-.23,0-.11,0-.3-.05c-7.47-1.38-12.87-6.05-12.06-10.44a4.82,4.82,0,0,1,.26-.9h-1.36l-.29,0h0l-.27,0H286l-.31,0h0l-.28,0h0l-.66-.08h0l-.33,0h0l-.34-.05h0l-.34-.06c-7.47-1.38-12.87-6.05-12.06-10.44l0-.18,0-.06,0-.12,0-.06,0-.14v0l.06-.17,0,0,.05-.13,0-.06.05-.12,0-.06.07-.15v0h0l.08-.16,0,0,.07-.12,0-.05.08-.12,0,0,.11-.16,0,0,.1-.13,0,0,.09-.1,0-.06.11-.13v0h0l.14-.15,0,0,.1-.1.05-.05.1-.09.05,0,.15-.13.06,0,.1-.08.08-.06.09-.07.08-.06.13-.1,0,0h0l.18-.12.06,0,.13-.08.07,0,.14-.08,0,0,.19-.11,0,0,.15-.08.08,0,.12-.06.09,0,.14-.07.11-.05.16-.07.09,0,.13-.06.09,0,.14-.05.1,0h0l.2-.07h0l.09,0,.14-.05.11,0,.13,0,.1,0,.16,0,.12,0,.18-.05.12,0,.13,0,.13,0,.11,0,.14,0h0l.22,0,.13,0,.12,0,.15,0,.11,0,.15,0,.1,0,.15,0,.23,0h0l.17,0h.09l.16,0,.13,0,.14,0h0l.24,0,.17,0h.63l.37,0h.06c-4.94-2.07-8.08-5.66-7.45-9.08.81-4.39,7.52-6.83,15-5.45l.33.06h0l.28.06H290l.3.07h0l.62.15h0l.3.08h0l.33.09h0l.3.09h0l.29.09h.05l.26.09h0l.28.1h0l.25.09.08,0,.24.09.05,0,.26.11h0l.26.11,0,0,.25.11h0l.26.12h0l.23.11h0l.24.12,0,0,.23.12.06,0a6,6,0,0,1-1.41-4.77c.81-4.39,7.52-6.83,15-5.45,5.49,1,9.87,3.81,11.48,7a4.85,4.85,0,0,1,.07-1.14c.81-4.39,7.52-6.83,15-5.45s12.87,6.05,12.06,10.44a4.87,4.87,0,0,1-.34,1.09c2.63-2.37,7.71-3.43,13.2-2.41,7.47,1.38,12.87,6.05,12.06,10.44a6,6,0,0,1-3,3.95h.06l.25,0h0l.27,0h.05l.26,0h0l.29,0h0l.28,0h2l.3,0h0l.31,0h0l.34,0h0l.31,0h0l.64.08h0l.31,0h.06l.28,0h0l.33.06c7.47,1.38,12.87,6.05,12.06,10.44l0,.18,0,.06,0,.12,0,.06,0,.14v0l-.06.17,0,0-.05.13,0,.06-.05.12,0,.06-.07.15v0h0l-.08.15,0,0-.07.12,0,.05-.08.12,0,0-.11.16,0,0-.1.13,0,0-.09.1,0,.06-.11.13v0h0l-.13.14,0,0-.1.1-.05.05-.1.09-.05,0-.15.13-.06,0-.1.08-.08.06-.09.07-.08.06-.11.08-.08.06-.15.1-.06,0-.11.07-.09.06-.11.07-.07,0-.18.1-.07,0-.13.07-.08,0-.12.06-.1,0-.1,0-.22.1-.08,0-.12.05-.1,0-.12,0-.1,0-.13.05-.2.07-.13,0-.09,0-.12,0-.12,0-.12,0-.1,0-.24.07-.11,0-.14,0-.09,0-.16,0h-.06l-.18,0-.22,0-.17,0h-.06l-.19,0H381l-.19,0h0l-.66.1h0l-.2,0h-.08l-.67.07h0l-.22,0h-.28l-.49,0,.09,0,.3.13.1,0,.14.06.11.05.15.07.11.05.13.07.22.11h0l.11.06.13.07.13.07.09.05.14.08h0l.2.12.11.06.11.07.13.08.1.06.12.08.12.08.09.06.2.13.1.07.11.08.1.07.12.09.09.07.19.14h0l0,0,.16.13.07.06.13.1.07.06.14.12,0,0,.18.16.06.05.12.12.06.06.11.11.06.06.16.16h0l0,0,.12.13.06.06.1.11.05.06.11.13,0,0,.14.17,0,0,.1.13.05.07.09.12,0,.05.12.17h0l.11.18,0,.06.07.12,0,.07.08.14,0,0,.1.18,0,0,.07.13,0,.07.06.13,0,.05.08.18h0v0l.06.17,0,.06,0,.13,0,.05,0,.16v0l0,.19v0l0,.14v.06l0,.14v.05l0,.17h0v.25s0,.09,0,.13v.06s0,.09,0,.14v0c0,.06,0,.12,0,.19v.45l0,.18C384.81,170.88,378.1,173.32,370.63,171.95Z" transform="translate(-271.44 -94.4)"/><path class="cls-4" d="M281.33,139.46c-4.72-2.09-7.67-5.58-7.06-8.91.81-4.39,7.52-6.83,15-5.45l.33.06h0l.08,0A128.89,128.89,0,0,0,281.33,139.46Z" transform="translate(-271.44 -94.4)"/><path class="cls-4" d="M375.84,141.07H376l.33.06c7.47,1.38,12.87,6.05,12.06,10.44l0,.18,0,.06,0,.12,0,.06,0,.14v0l-.06.17,0,0-.05.13,0,.06-.05.12,0,.06-.07.15v0h0l-.08.15,0,0-.07.12,0,.05-.08.12,0,0-.11.16,0,0-.1.13,0,0-.09.1,0,.06-.11.13v0h0l-.13.14,0,0-.1.1-.05.05-.1.09-.05,0-.15.13-.06,0-.1.08-.08.06-.09.07-.08.06-.11.08-.08.06-.15.1-.06,0-.11.07-.09.06-.11.07-.07,0-.18.1-.07,0-.13.07-.08,0-.12.06-.1,0-.1,0-.22.1-.08,0-.12.05-.1,0-.12,0-.1,0-.13.05-.2.07-.13,0-.09,0-.12,0-.12,0-.12,0-.1,0-.24.07-.11,0-.14,0-.09,0-.16,0h-.06l-.18,0-.22,0-.17,0h-.06l-.19,0H381l-.19,0h0l-.66.1h0l-.2,0h-.08l-.67.07h0l-.22,0h-.35A128.71,128.71,0,0,0,375.84,141.07Z" transform="translate(-271.44 -94.4)"/><path class="cls-4" d="M366.64,170.83c.54-16.62-.83-31.62-3.87-43.8q-1-.3-2.16-.51c-5.49-1-10.58,0-13.2,2.41a4.87,4.87,0,0,0,.34-1.09c.81-4.39-4.59-9.06-12.06-10.44s-14.18,1.06-15,5.45a4.85,4.85,0,0,0-.07,1.14c-1.61-3.15-6-6-11.48-7-.74-.14-1.48-.24-2.2-.3-7.18,10.29-13.81,23.82-19.23,39.54h.3a4.82,4.82,0,0,0-.26.9c-.81,4.39,4.59,9.06,12.06,10.44l.3.05.11,0,.23,0h.08l.29,0h.1l.23,0h.08l.25,0h.08l.3,0h.06l.26,0h.09l.22,0h.09l.29,0h2.33l.28,0h.08l.21,0h.09l.23,0h0l.27,0h.09l.19,0h.09l.23,0h.05l.24,0,.11,0,.15,0,.1,0,.25-.05h0l.25-.06.09,0,.16,0,.09,0,.23-.06h.06l.18-.05.09,0,.15,0,.09,0,.22-.07.06,0,.17-.06.08,0L310,167l.06,0,.21-.08.09,0,.13-.06.09,0,.13-.06.1,0,.17-.08.07,0,.14-.07.07,0,.14-.08.11-.06.12-.07.08,0,.11-.07.08,0,.17-.11,0,0,.13-.09.07-.05.1-.07.07-.06h0l.14-.1h0l.07-.06.09-.07.07-.06.08-.07.07-.06a4.86,4.86,0,0,0-.34,1.09c-.81,4.39,4.59,9.06,12.06,10.44s14.18-1.06,15-5.45a4.87,4.87,0,0,0,.07-1.14l0,.08,0,.09,0,.08.06.1,0,.08h0l.09.15h0l.05.08.06.1,0,.07.09.13,0,0,.12.16.06.07.08.1.05.07.09.11.08.1.1.12.06.06.1.11.05.06.13.14.07.08.1.1.07.07.1.1.07.07.16.15,0,0,.13.11.07.06.14.12.05,0,.18.15.07.06.13.1.08.06.15.11,0,0h0l.19.14.08.05.14.1.08.05.21.14h0l.22.14.09.05.13.08.1.06.21.12h0l0,0,.2.11.08,0,.16.09.08,0,.24.13,0,0,.2.1.08,0,.19.09.07,0,.26.12,0,0,.22.1.08,0,.24.1h0l.27.11.08,0,.18.07.12,0,.21.08.12,0,.21.07.09,0,.21.07.09,0,.28.09.08,0,.22.07.08,0,.25.07.06,0,.29.08.08,0,.24.06.08,0,.23.06.1,0,.29.06.08,0,.22,0,.11,0,.3.06c7.47,1.38,14.18-1.06,15-5.45,0-.07,0-.13,0-.2v0c0-.06,0-.12,0-.18v0h0s0-.09,0-.13h0V171h0v-.07h0v-.12h0l.24.09Z" transform="translate(-271.44 -94.4)"/><path class="cls-3" d="M344.72,121.43a21.22,21.22,0,0,0-18.92-3.49c-4.4,12.23-8.92,28.68-12.86,47.34h0l.07-.06q-.07.16-.13.33l-.27,1.31c-.28,4.22,5,8.57,12.13,9.89s13.62-.87,14.86-4.91l.21-1.32c0-.12,0-.24,0-.36l0,.08h0C342.83,151.4,344.47,134.42,344.72,121.43Z" transform="translate(-271.44 -94.4)"/><path class="cls-5" d="M294.94,127.29a.62.62,0,1,1,1.24-.06l5.54,104a.62.62,0,0,1-1.25.06Z" transform="translate(-271.44 -94.4)"/><path class="cls-5" d="M281.11,139.76a.62.62,0,0,1,1.22-.26l19.38,91.63a.62.62,0,0,1-1.22.26Z" transform="translate(-271.44 -94.4)"/><path class="cls-5" d="M369.15,140.66a.62.62,0,1,1,1.14.51l-43,95.07a.62.62,0,1,1-1.14-.51Z" transform="translate(-271.44 -94.4)"/><path class="cls-5" d="M378.13,157.28a.62.62,0,0,1,1,.69l-51.9,78.36a.62.62,0,1,1-1-.69Z" transform="translate(-271.44 -94.4)"/><path class="cls-5" d="M320,123.89a.62.62,0,1,1,1.23.23L301.72,231.37a.62.62,0,0,1-1.23-.23Z" transform="translate(-271.44 -94.4)"/><path class="cls-5" d="M346.79,128.83a.62.62,0,0,1,1.22.24l-20.65,107a.62.62,0,1,1-1.22-.24Z" transform="translate(-271.44 -94.4)"/><polygon class="cls-6" points="56.47 141.79 53.36 158.41 25.39 153.25 28.5 136.63 56.47 141.79"/></svg>