<?xml version="1.0" encoding="UTF-8" standalone="no"?>
<!DOCTYPE svg PUBLIC "-//W3C//DTD SVG 1.1//EN" "http://www.w3.org/Graphics/SVG/1.1/DTD/svg11.dtd">
<svg width="100%" height="100%" viewBox="0 0 1366 768" version="1.1" xmlns="http://www.w3.org/2000/svg" xmlns:xlink="http://www.w3.org/1999/xlink" xml:space="preserve" style="fill-rule:evenodd;clip-rule:evenodd;stroke-linejoin:round;stroke-miterlimit:1.41421;">
    <g transform="matrix(0.705919,0.708292,-0.708292,0.705919,113.84,-243.014)">
        <rect x="204.288" y="149.553" width="268.026" height="268.026" style="fill:white;fill-opacity:0.105882;"/>
    </g>
    <g transform="matrix(0.436194,0.43766,-0.435244,0.433786,231.002,-15.8286)">
        <rect x="204.288" y="149.553" width="268.026" height="268.026" style="fill:white;fill-opacity:0.105882;"/>
    </g>
    <g transform="matrix(0.705919,0.708292,-0.708292,0.705919,225.788,-177.109)">
        <rect x="204.288" y="149.553" width="268.026" height="268.026" style="fill:white;fill-opacity:0.105882;"/>
    </g>
    <g transform="matrix(0.705919,0.708292,-0.708292,0.705919,278.491,-282.025)">
        <rect x="204.288" y="149.553" width="268.026" height="268.026" style="fill:white;fill-opacity:0.105882;"/>
    </g>
    <g transform="matrix(1.21497,1.21905,-1.21905,1.21497,1183.06,-686.943)">
        <rect x="204.288" y="149.553" width="268.026" height="268.026" style="fill:white;fill-opacity:0.105882;"/>
    </g>
    <g transform="matrix(1.09106,1.09472,-1.09472,1.09106,1008.44,19.5413)">
        <rect x="204.288" y="149.553" width="268.026" height="268.026" style="fill:white;fill-opacity:0.105882;"/>
    </g>
    <g transform="matrix(1.40102,1.40574,-1.40574,1.40102,175.213,-281.17)">
        <rect x="204.288" y="149.553" width="268.026" height="268.026" style="fill:white;fill-opacity:0.105882;"/>
    </g>
    <g transform="matrix(0.705919,0.708292,-0.708292,0.705919,1240.02,-393.739)">
        <rect x="204.288" y="149.553" width="268.026" height="268.026" style="fill:white;fill-opacity:0.105882;"/>
    </g>
    <g transform="matrix(0.705919,0.708292,-0.708292,0.705919,1246.87,225.838)">
        <rect x="204.288" y="149.553" width="268.026" height="268.026" style="fill:white;fill-opacity:0.105882;"/>
    </g>
    <g transform="matrix(0.705919,0.708292,-0.708292,0.705919,1212.48,-169.809)">
        <rect x="204.288" y="149.553" width="268.026" height="268.026" style="fill:white;fill-opacity:0.105882;"/>
    </g>
</svg>
